<?xml version="1.0" encoding="utf-8"?>
<!-- Generator: Adobe Illustrator 22.1.0, SVG Export Plug-In . SVG Version: 6.00 Build 0)  -->
<svg version="1.1" id="Logo_garciarobles_x2B_" xmlns="http://www.w3.org/2000/svg" xmlns:xlink="http://www.w3.org/1999/xlink"
	 x="0px" y="0px" viewBox="0 0 150 150" enable-background="new 0 0 150 150" xml:space="preserve">
<g>
	<path fill="#BD151D" d="M75,29c25.365,0,46,20.635,46,46s-20.635,46-46,46s-46-20.635-46-46S49.635,29,75,29 M75,10
		c-35.899,0-65,29.102-65,65s29.101,65,65,65s65-29.102,65-65S110.899,10,75,10L75,10z"/>
	<polygon fill="#BD151D" points="105,66.5 83.5,66.5 83.5,45 66.5,45 66.5,66.5 45,66.5 45,83.5 66.5,83.5 66.5,105 83.5,105 
		83.5,83.5 105,83.5 	"/>
</g>
</svg>
