<?xml version="1.0" encoding="utf-8"?>
<!-- Generator: Adobe Illustrator 22.1.0, SVG Export Plug-In . SVG Version: 6.00 Build 0)  -->
<svg version="1.1" id="Logo_garciarobles_x2B_" xmlns="http://www.w3.org/2000/svg" xmlns:xlink="http://www.w3.org/1999/xlink"
	 x="0px" y="0px" viewBox="0 0 1172 222" enable-background="new 0 0 1172 222" xml:space="preserve">
<g>
	<g>
		<path fill="#464648" d="M94.941,64.378c5.71,2.335,10.322,6.624,13.837,12.867V64.46h22.927v84.203
			c0,11.454-1.952,20.087-5.855,25.896c-6.708,9.988-19.574,14.984-38.597,14.984c-11.492,0-20.866-2.228-28.123-6.678
			c-7.258-4.452-11.271-11.104-12.041-19.952h25.566c0.66,2.715,1.732,4.669,3.216,5.863c2.528,2.117,6.79,3.177,12.783,3.177
			c8.466,0,14.13-2.797,16.989-8.389c1.869-3.583,2.804-9.608,2.804-18.078v-5.7c-2.255,3.801-4.674,6.65-7.258,8.551
			c-4.674,3.529-10.75,5.293-18.226,5.293c-11.546,0-20.77-4.003-27.669-12.012c-6.901-8.007-10.35-18.853-10.35-32.533
			c0-13.192,3.322-24.28,9.966-33.266c6.645-8.984,16.062-13.478,28.252-13.478C87.665,62.342,91.59,63.022,94.941,64.378z
			 M102.946,128.02c3.778-4.099,5.667-10.627,5.667-19.585c0-8.415-1.794-14.821-5.38-19.219c-3.586-4.397-8.39-6.596-14.412-6.596
			c-8.214,0-13.88,3.828-17.001,11.482c-1.643,4.072-2.464,9.094-2.464,15.065c0,5.159,0.875,9.746,2.627,13.763
			c3.175,7.492,8.87,11.238,17.083,11.238C94.541,134.168,99.167,132.119,102.946,128.02z"/>
		<path fill="#464648" d="M184.856,99.232c4.375-0.542,7.503-1.222,9.387-2.036c3.379-1.411,5.068-3.61,5.068-6.596
			c0-3.637-1.296-6.148-3.888-7.533c-2.591-1.385-6.396-2.077-11.411-2.077c-5.629,0-9.615,1.357-11.955,4.072
			c-1.673,2.009-2.788,4.723-3.344,8.143h-22.68c0.496-7.763,2.705-14.142,6.626-19.137c6.24-7.818,16.952-11.727,32.138-11.727
			c9.884,0,18.664,1.928,26.34,5.782c7.675,3.855,11.513,11.13,11.513,21.824v40.717c0,2.823,0.054,6.244,0.165,10.261
			c0.165,3.041,0.632,5.104,1.402,6.189c0.769,1.087,1.924,1.982,3.464,2.688v3.42h-25.566c-0.715-1.792-1.21-3.474-1.484-5.049
			c-0.276-1.574-0.495-3.365-0.66-5.375c-3.263,3.476-7.024,6.434-11.282,8.877c-5.087,2.877-10.84,4.315-17.255,4.315
			c-8.185,0-14.945-2.294-20.282-6.881c-5.337-4.587-8.005-11.088-8.005-19.504c0-10.912,4.292-18.812,12.877-23.697
			c4.708-2.66,11.632-4.561,20.771-5.701L184.856,99.232z M199.228,110.063c-1.505,0.924-3.024,1.669-4.557,2.239
			c-1.534,0.57-3.637,1.1-6.312,1.588l-5.35,0.978c-5.016,0.869-8.617,1.928-10.804,3.176c-3.702,2.117-5.552,5.402-5.552,9.854
			c0,3.964,1.13,6.828,3.392,8.592c2.26,1.765,5.01,2.646,8.249,2.646c5.136,0,9.867-1.466,14.194-4.397
			c4.328-2.932,6.573-8.278,6.741-16.043V110.063z"/>
		<path fill="#464648" d="M288.732,62.383c0.301,0.028,0.976,0.069,2.021,0.122v23.779c-1.484-0.163-2.804-0.271-3.958-0.326
			c-1.155-0.053-2.09-0.082-2.804-0.082c-9.458,0-15.808,3.041-19.051,9.121c-1.814,3.42-2.722,8.687-2.722,15.798v42.428h-23.669
			V64.46h22.433v15.473c3.629-5.917,6.79-9.962,9.484-12.134c4.398-3.637,10.116-5.457,17.154-5.457
			C288.058,62.342,288.429,62.356,288.732,62.383z"/>
		<path fill="#464648" d="M353.906,96.301c-0.441-3.311-1.571-6.297-3.389-8.958c-2.647-3.583-6.752-5.375-12.318-5.375
			c-7.938,0-13.367,3.882-16.287,11.645c-1.544,4.116-2.314,9.585-2.314,16.408c0,6.499,0.771,11.725,2.314,15.677
			c2.811,7.385,8.102,11.075,15.874,11.075c5.511,0,9.425-1.466,11.739-4.397s3.72-6.73,4.216-11.4h24
			c-0.552,7.058-3.138,13.735-7.76,20.033c-7.376,10.152-18.3,15.228-32.773,15.228c-14.476,0-25.125-4.234-31.949-12.703
			c-6.825-8.47-10.237-19.45-10.237-32.943c0-15.226,3.769-27.074,11.309-35.543c7.54-8.469,17.941-12.704,31.207-12.704
			c11.282,0,20.514,2.498,27.696,7.492c7.182,4.996,11.433,13.817,12.755,26.466H353.906z"/>
		<path fill="#464648" d="M413.843,53.873h-23.834V32.456h23.834V53.873z M390.009,64.46h23.834v88.764h-23.834V64.46z"/>
		<path fill="#464648" d="M464.441,99.232c4.375-0.542,7.503-1.222,9.387-2.036c3.379-1.411,5.068-3.61,5.068-6.596
			c0-3.637-1.296-6.148-3.888-7.533c-2.591-1.385-6.396-2.077-11.411-2.077c-5.629,0-9.615,1.357-11.955,4.072
			c-1.673,2.009-2.788,4.723-3.344,8.143h-22.68c0.496-7.763,2.705-14.142,6.626-19.137c6.24-7.818,16.952-11.727,32.138-11.727
			c9.884,0,18.664,1.928,26.34,5.782c7.675,3.855,11.513,11.13,11.513,21.824v40.717c0,2.823,0.054,6.244,0.165,10.261
			c0.165,3.041,0.632,5.104,1.402,6.189c0.769,1.087,1.924,1.982,3.464,2.688v3.42H481.7c-0.715-1.792-1.21-3.474-1.484-5.049
			c-0.276-1.574-0.495-3.365-0.66-5.375c-3.263,3.476-7.024,6.434-11.282,8.877c-5.087,2.877-10.84,4.315-17.255,4.315
			c-8.185,0-14.945-2.294-20.282-6.881c-5.337-4.587-8.005-11.088-8.005-19.504c0-10.912,4.292-18.812,12.877-23.697
			c4.708-2.66,11.632-4.561,20.771-5.701L464.441,99.232z M478.813,110.063c-1.505,0.924-3.024,1.669-4.557,2.239
			c-1.534,0.57-3.637,1.1-6.312,1.588l-5.35,0.978c-5.016,0.869-8.617,1.928-10.804,3.176c-3.702,2.117-5.552,5.402-5.552,9.854
			c0,3.964,1.13,6.828,3.392,8.592c2.26,1.765,5.01,2.646,8.249,2.646c5.136,0,9.867-1.466,14.194-4.397
			c4.328-2.932,6.573-8.278,6.741-16.043V110.063z"/>
		<path fill="#464648" d="M568.317,62.383c0.301,0.028,0.976,0.069,2.021,0.122v23.779c-1.484-0.163-2.804-0.271-3.958-0.326
			c-1.155-0.053-2.09-0.082-2.804-0.082c-9.458,0-15.808,3.041-19.051,9.121c-1.814,3.42-2.722,8.687-2.722,15.798v42.428h-23.669
			V64.46h22.433v15.473c3.629-5.917,6.79-9.962,9.484-12.134c4.398-3.637,10.116-5.457,17.154-5.457
			C567.642,62.342,568.014,62.356,568.317,62.383z"/>
		<path fill="#464648" d="M651.307,142.365c-7.587,9.247-19.106,13.871-34.556,13.871c-15.45,0-26.968-4.624-34.556-13.871
			c-7.587-9.248-11.381-20.382-11.381-33.401c0-12.8,3.794-23.894,11.381-33.277c7.588-9.384,19.105-14.077,34.556-14.077
			c15.449,0,26.969,4.693,34.556,14.077c7.588,9.384,11.382,20.477,11.382,33.277C662.689,121.983,658.895,133.117,651.307,142.365z
			 M632.504,129.537c3.684-4.824,5.526-11.682,5.526-20.573c0-8.89-1.843-15.735-5.526-20.532s-8.962-7.197-15.834-7.197
			c-6.874,0-12.165,2.4-15.876,7.197s-5.567,11.642-5.567,20.532c0,8.892,1.856,15.749,5.567,20.573
			c3.711,4.825,9.002,7.236,15.876,7.236C623.542,136.773,628.82,134.362,632.504,129.537z"/>
		<path fill="#464648" d="M751.879,75.128c6.725,8.416,10.086,19.273,10.086,32.573c0,13.791-3.316,25.219-9.948,34.284
			c-6.631,9.067-15.889,13.6-27.77,13.6c-7.461,0-13.457-1.466-17.988-4.397c-2.708-1.736-5.638-4.776-8.787-9.12v11.156h-23.174
			V33.352h23.504v42.672c2.987-4.125,6.279-7.274,9.878-9.446c4.26-2.714,9.684-4.072,16.269-4.072
			C735.844,62.505,745.155,66.713,751.879,75.128z M732.232,129.2c3.382-4.831,5.073-11.183,5.073-19.056
			c0-6.297-0.832-11.509-2.494-15.635c-3.16-7.818-8.98-11.727-17.463-11.727c-8.592,0-14.496,3.827-17.712,11.482
			c-1.663,4.071-2.494,9.338-2.494,15.798c0,7.602,1.718,13.898,5.155,18.893c3.437,4.995,8.675,7.492,15.716,7.492
			C724.112,136.448,728.851,134.033,732.232,129.2z"/>
		<path fill="#464648" d="M794.524,153.224H771.02V33.189h23.504V153.224z"/>
		<path fill="#464648" d="M868.26,66.258c6.271,2.774,11.45,7.151,15.535,13.131c3.681,5.274,6.069,11.391,7.162,18.351
			c0.633,4.078,0.89,9.951,0.774,17.617h-65.473c0.364,8.904,3.498,15.146,9.4,18.73c3.59,2.227,7.909,3.339,12.96,3.339
			c5.354,0,9.704-1.356,13.051-4.072c1.825-1.466,3.438-3.502,4.838-6.107h23.996c-0.632,5.267-3.537,10.614-8.713,16.043
			c-8.053,8.632-19.326,12.947-33.82,12.947c-11.964,0-22.519-3.64-31.664-10.921c-9.146-7.28-13.718-19.127-13.718-35.537
			c0-15.376,4.128-27.167,12.384-35.372c8.255-8.205,18.972-12.308,32.146-12.308C854.942,62.098,861.989,63.485,868.26,66.258z
			 M833.097,86.307c-3.322,3.381-5.409,7.96-6.262,13.74h40.494c-0.429-6.161-2.515-10.836-6.262-14.026s-8.395-4.786-13.94-4.786
			C841.094,81.235,836.418,82.926,833.097,86.307z"/>
		<path fill="#464648" d="M917.453,124.885c0.497,4.126,1.574,7.058,3.231,8.795c2.928,3.094,8.342,4.642,16.242,4.642
			c4.641,0,8.328-0.679,11.062-2.036c2.734-1.356,4.102-3.393,4.102-6.107c0-2.606-1.102-4.587-3.304-5.945
			c-2.203-1.355-10.4-3.69-24.59-7.003c-10.215-2.496-17.411-5.619-21.589-9.365c-4.18-3.691-6.269-9.011-6.269-15.961
			c0-8.197,3.265-15.241,9.794-21.132c6.529-5.89,15.717-8.835,27.563-8.835c11.239,0,20.4,2.212,27.48,6.637
			c7.079,4.425,11.144,12.066,12.191,22.924h-23.505c-0.331-2.985-1.186-5.347-2.562-7.085c-2.593-3.148-7.004-4.723-13.233-4.723
			c-5.127,0-8.779,0.788-10.957,2.362c-2.178,1.575-3.267,3.42-3.267,5.538c0,2.661,1.157,4.588,3.474,5.782
			c2.314,1.25,10.495,3.394,24.541,6.433c9.363,2.172,16.382,5.457,21.056,9.854c4.619,4.452,6.928,10.017,6.928,16.694
			c0,8.795-3.319,15.975-9.958,21.539s-16.899,8.347-30.781,8.347c-14.16,0-24.613-2.945-31.361-8.835
			c-6.75-5.891-10.124-13.396-10.124-22.517H917.453z"/>
	</g>
	<path fill="#BD151D" d="M1062.055,57.286c25.365,0,46,20.635,46,46s-20.635,46-46,46s-46-20.635-46-46
		S1036.691,57.286,1062.055,57.286 M1062.055,38.286c-35.899,0-65,29.102-65,65s29.101,65,65,65s65-29.102,65-65
		S1097.954,38.286,1062.055,38.286L1062.055,38.286z"/>
	<polygon fill="#BD151D" points="1092.555,94.786 1071.055,94.786 1071.055,73.286 1054.055,73.286 1054.055,94.786 
		1032.555,94.786 1032.555,111.786 1054.055,111.786 1054.055,133.286 1071.055,133.286 1071.055,111.786 1092.555,111.786 	"/>
</g>
</svg>
