<?xml version="1.0" encoding="utf-8"?>
<!-- Generator: Adobe Illustrator 22.1.0, SVG Export Plug-In . SVG Version: 6.00 Build 0)  -->
<svg version="1.1" id="Layer_1" xmlns="http://www.w3.org/2000/svg" xmlns:xlink="http://www.w3.org/1999/xlink" x="0px" y="0px"
	 viewBox="0 0 150 80" enable-background="new 0 0 150 80" xml:space="preserve">
<g>
	<polygon fill="#3F69FB" points="57.11,14.053 40.475,14.053 24.354,36.43 24.354,14.053 9.926,14.053 9.926,65.947 24.354,65.947 
		24.354,43.202 40.622,65.947 58.067,65.947 38.045,39.227 	"/>
	<rect x="58.583" y="14.053" fill="#3F69FB" width="14.428" height="51.895"/>
	<polygon fill="#3F69FB" points="140.44,25.609 140.44,14.053 121.67,14.053 107.243,14.053 107.243,36.43 91.122,14.053 
		74.487,14.053 93.551,39.227 73.529,65.947 90.975,65.947 107.243,43.202 107.243,65.947 121.67,65.947 140.44,65.947 
		140.44,54.391 121.67,54.391 121.67,45.042 138.232,45.042 138.232,34.075 121.67,34.075 121.67,25.609 	"/>
</g>
</svg>
