<?xml version="1.0" encoding="utf-8"?>
<!-- Generator: Adobe Illustrator 22.1.0, SVG Export Plug-In . SVG Version: 6.00 Build 0)  -->
<svg version="1.1" id="Layer_1" xmlns="http://www.w3.org/2000/svg" xmlns:xlink="http://www.w3.org/1999/xlink" x="0px" y="0px"
	 viewBox="0 0 200 200" enable-background="new 0 0 200 200" xml:space="preserve">
<g>
	<path fill="#264DE4" d="M99.921,194.712l-54.76-15.202L32.905,42.531h134.19L154.891,179.51L99.921,194.712L99.921,194.712z"/>
	<path fill="#2965F1" d="M144.423,170.725l10.468-117.042h-54.865v129.404L144.423,170.725L144.423,170.725z"/>
	<path fill="#EBEBEB" d="M60.942,104.498l1.525,16.78h37.559v-16.78H60.942L60.942,104.498z"/>
	<path fill="#EBEBEB" d="M57.891,70.516l1.525,16.78h40.61v-16.78H57.891L57.891,70.516z"/>
	<path fill="#EBEBEB" d="M100.026,148.158h-0.053l-18.727-5.05l-1.21-13.414H63.204l2.367,26.354l34.402,9.574h0.053V148.158
		L100.026,148.158z"/>
	<path d="M64.519,5.288h20.357v8.522H73.041v8.522h11.836v8.522H64.519V5.288L64.519,5.288z"/>
	<path d="M88.927,5.288h20.357v7.417H97.449v1.473h11.836v17.043H88.927v-7.785h11.836v-1.473H88.927V5.288L88.927,5.288z"/>
	<path d="M113.335,5.288h20.357v7.417h-11.836v1.473h11.836v17.043h-20.357v-7.785h11.836v-1.473h-11.836L113.335,5.288
		L113.335,5.288z"/>
	<path fill="#FFFFFF" d="M139.005,104.498l3.051-33.982H99.974v16.78h23.671l-1.525,17.201H99.974v16.78h20.673l-1.946,21.778
		l-18.727,5.05v17.464l34.455-9.521l0.263-2.841l3.945-44.239L139.005,104.498L139.005,104.498z"/>
</g>
</svg>
