<?xml version="1.0" encoding="utf-8"?>
<!-- Generator: Adobe Illustrator 22.1.0, SVG Export Plug-In . SVG Version: 6.00 Build 0)  -->
<svg version="1.1" id="Layer_1" xmlns="http://www.w3.org/2000/svg" xmlns:xlink="http://www.w3.org/1999/xlink" x="0px" y="0px"
	 viewBox="0 0 200 200" enable-background="new 0 0 200 200" xml:space="preserve">
<title>HTML5 Logo</title>
<g>
	<polygon fill="#E44D26" points="44.313,180.657 31.922,41.676 168.078,41.676 155.674,180.635 99.917,196.093 	"/>
	<polygon fill="#F16529" points="100,184.278 145.055,171.787 155.655,53.04 100,53.04 	"/>
	<polygon fill="#EBEBEB" points="100,104.586 77.445,104.586 75.887,87.131 100,87.131 100,70.086 99.941,70.086 57.258,70.086 
		57.666,74.658 61.855,121.631 100,121.631 	"/>
	<polygon fill="#EBEBEB" points="100,148.854 99.925,148.875 80.942,143.748 79.728,130.154 70.504,130.154 62.617,130.154 
		65.005,156.918 99.921,166.611 100,166.589 	"/>
	<path d="M44.59,3.907h8.663v8.558h7.924V3.907h8.663v25.917h-8.662v-8.679h-7.924v8.679H44.59V3.907L44.59,3.907z"/>
	<path d="M81.23,12.501h-7.626V3.907h23.918v8.594h-7.629v17.322H81.23V12.501L81.23,12.501z"/>
	<path d="M101.318,3.907h9.032l5.556,9.106l5.55-9.106h9.036v25.917h-8.626V16.978l-5.96,9.215h-0.149l-5.964-9.215v12.846h-8.476
		L101.318,3.907L101.318,3.907z"/>
	<path d="M134.804,3.907h8.665v17.35h12.182v8.566h-20.847V3.907z"/>
	<polygon fill="#FFFFFF" points="99.941,104.586 99.941,121.631 120.931,121.631 118.952,143.738 99.941,148.869 99.941,166.602 
		134.885,156.918 135.141,154.038 139.147,109.163 139.563,104.586 134.97,104.586 	"/>
	<polygon fill="#FFFFFF" points="99.941,70.086 99.941,80.672 99.941,87.089 99.941,87.131 141.059,87.131 141.059,87.131 
		141.114,87.131 141.456,83.3 142.233,74.658 142.64,70.086 	"/>
</g>
</svg>
