<svg id="Layer_1" data-name="Layer 1" xmlns="http://www.w3.org/2000/svg" viewBox="0 0 200 200"><defs><style>.cls-1{fill:#000b1d;}.cls-2{fill:#fff;}</style></defs><title>Logos-Adobe-Photoshop-Lightroom</title><path class="cls-1" d="M38.65,7.38h122.7A33.62,33.62,0,0,1,195,41V159a33.62,33.62,0,0,1-33.65,33.64H38.65A33.62,33.62,0,0,1,5,159V41A33.62,33.62,0,0,1,38.65,7.38"/><path class="cls-2" d="M157.79,114.65c-8.79-9.35-33.09-5.55-38.79-4.6a99,99,0,0,1-16.23-21.37,95,95,0,0,0,5.54-28c0-8.55-3.4-17.73-12.9-17.73a9.64,9.64,0,0,0-8,4.67c-4,7-2.45,21.38,4,35.94-3.8,10.69-9.26,26.13-16.47,38.64-9.73,3.88-30.4,13.38-32.38,23.9a8.93,8.93,0,0,0,2.85,8.4,12.1,12.1,0,0,0,8.4,3c12.43,0,24.85-17.25,33.25-32.06a211.59,211.59,0,0,1,29.6-7.76c13.15,11.48,24.86,13.22,30.8,13.22,8.08,0,11.08-3.48,12.19-6.41a9.86,9.86,0,0,0-1.9-9.81m-8.55,6c-.39,2.3-3.32,4.59-8.79,3.41a44.09,44.09,0,0,1-17.25-8.71c4.27-.71,14.25-1.66,21.29-.32,2.54.48,5.46,1.9,4.75,5.62M92.56,50.6a3.17,3.17,0,0,1,2.77-1.74c3,0,3.64,3.64,3.64,6.65a92.25,92.25,0,0,1-4,21.14C90,63.19,90.66,53.85,92.56,50.6m-.71,65.79a199.14,199.14,0,0,0,7.83-18.84,100.43,100.43,0,0,0,10.77,14.09,178.26,178.26,0,0,0-18.6,4.75M72,130c-8,12.83-15.84,20.9-20.43,20.9a3.24,3.24,0,0,1-2.06-.71,3,3,0,0,1-1-2.93C49.33,142.67,58.44,136,72,130"/></svg>