<?xml version="1.0" encoding="utf-8"?>
<!-- Generator: Adobe Illustrator 22.1.0, SVG Export Plug-In . SVG Version: 6.00 Build 0)  -->
<svg version="1.1" id="katman_1" xmlns="http://www.w3.org/2000/svg" xmlns:xlink="http://www.w3.org/1999/xlink" x="0px" y="0px"
	 viewBox="0 0 200 200" enable-background="new 0 0 200 200" xml:space="preserve">
<g>
	<path fill="#2489CA" d="M7.921,71.898c0,0-4.573-3.297,0.916-7.699l12.785-11.432c0,0,3.657-3.845,7.527-0.497l117.971,89.317
		v42.826c0,0-0.06,6.722-8.683,5.986L7.921,71.898z"/>
	<path fill="#1070B3" d="M38.322,99.507l-30.4,27.643c0,0-3.126,2.321,0,6.474l14.121,12.837c0,0,3.357,3.597,8.307-0.497
		l32.233-24.44L38.322,99.507z"/>
	<path fill="#0877B9" d="M91.707,99.738l55.766-42.578l-0.36-42.603c0,0-2.381-9.3-10.328-4.462l-74.211,67.54L91.707,99.738z"/>
	<path fill="#3C99D4" d="M138.42,190.46c3.237,3.314,7.168,2.227,7.168,2.227l43.46-21.417c5.566-3.794,4.778-8.495,4.778-8.495
		V34.904c0-5.618-5.755-7.562-5.755-7.562L150.409,9.188c-8.23-5.087-13.625,0.916-13.625,0.916s6.936-4.993,10.328,4.462v169.078
		c0,1.165-0.248,2.304-0.745,3.331c-0.993,2.004-3.143,3.871-8.307,3.083L138.42,190.46z"/>
</g>
</svg>
