<svg id="Layer_1" data-name="Layer 1" xmlns="http://www.w3.org/2000/svg" viewBox="0 0 200 200"><defs><style>.cls-1{fill:#00005b;}.cls-2{fill:#99f;}</style></defs><title>Logos-Adobe-Photoshop-Lightroom</title><path class="cls-1" d="M38.65,7.38h122.7A33.62,33.62,0,0,1,195,41V159a33.62,33.62,0,0,1-33.65,33.64H38.65A33.62,33.62,0,0,1,5,159V41A33.62,33.62,0,0,1,38.65,7.38"/><path class="cls-2" d="M50.12,137.29V55.83c0-.56.24-.88.8-.88,1.34,0,2.61,0,4.43-.07s3.88-.08,6-.16,4.43-.08,6.88-.16,4.83-.08,7.21-.08c6.49,0,11.87.79,16.31,2.45a28.41,28.41,0,0,1,10.6,6.49,25.14,25.14,0,0,1,5.78,9A30.26,30.26,0,0,1,110,82.74Q110,93,105.22,99.6a27.06,27.06,0,0,1-12.74,9.66A51.3,51.3,0,0,1,74.67,112c-1.9,0-3.17,0-4-.07s-1.9-.08-3.41-.08v25.41a1,1,0,0,1-.87,1.11H51.07c-.63,0-1-.32-1-1M67.38,70.23v26.6c1.11.08,2.14.16,3.09.16h4.2a29.58,29.58,0,0,0,9.1-1.42,13.67,13.67,0,0,0,6.49-4.2c1.66-2,2.46-4.67,2.46-8.15a13.09,13.09,0,0,0-1.82-7,11.48,11.48,0,0,0-5.55-4.51A23.15,23.15,0,0,0,76,70.08c-2.06,0-3.88,0-5.38.07a19.06,19.06,0,0,0-3.25.08"/><path class="cls-2" d="M121.06,74.83h13.85a1.77,1.77,0,0,1,1.66,1.26,8,8,0,0,1,.48,2c.16.79.32,1.66.4,2.46s.15,1.82.15,2.85a29.43,29.43,0,0,1,8.47-6.81,24.56,24.56,0,0,1,12-3.09,1,1,0,0,1,1.11.87V90.1c0,.64-.4.87-1.27.87a34.54,34.54,0,0,0-8.55.8,32.22,32.22,0,0,0-6.65,2.13,12.59,12.59,0,0,0-4,2.93v40.38c0,.79-.31,1.11-1,1.11H122.09a1.1,1.1,0,0,1-1.27-.95V93.19c0-1.9,0-3.88-.08-5.94s-.08-4.11-.16-6.17c0-1.82-.16-3.56-.31-5.38a.72.72,0,0,1,.55-.87c0-.08.16-.08.24,0"/></svg>