<svg id="Layer_1" data-name="Layer 1" xmlns="http://www.w3.org/2000/svg" viewBox="0 0 200 200"><defs><style>.cls-1{fill:#00005b;}.cls-2{fill:#99f;}</style></defs><title>Logos-Adobe-Photoshop-Lightroom</title><path class="cls-1" d="M38.65,7.38h122.7A33.64,33.64,0,0,1,195,41V159a33.64,33.64,0,0,1-33.65,33.64H38.65A33.64,33.64,0,0,1,5,159V41A33.64,33.64,0,0,1,38.65,7.38"/><path class="cls-2" d="M81.33,118.21H51.89l-6,18.64A1.52,1.52,0,0,1,44.37,138H29.45c-.85,0-1.15-.47-.89-1.4L54.05,63.49c.26-.77.51-1.52.77-2.5a27.86,27.86,0,0,0,.51-5.16.79.79,0,0,1,.67-.89H76.49c.59,0,.93.21,1,.64l28.94,81.15c.25.85,0,1.27-.77,1.27H89.1a1.18,1.18,0,0,1-1.27-.89ZM56.47,102.49H76.61q-.77-2.55-1.78-5.74c-.68-2.12-1.41-4.39-2.17-6.82s-1.53-4.84-2.29-7.26-1.47-4.76-2.11-7-1.21-4.31-1.72-6.18h-.12a105.28,105.28,0,0,1-2.68,10.19c-1.19,3.83-2.4,7.73-3.63,11.73s-2.45,7.69-3.64,11.09"/><path class="cls-2" d="M153.34,111H128.23a17.87,17.87,0,0,0,2.43,7,13,13,0,0,0,5.79,4.78,24.22,24.22,0,0,0,10.14,2,46.37,46.37,0,0,0,8.22-.9,30.44,30.44,0,0,0,7.07-1.85c.42-.33.63-.12.63.64v12.11a1.78,1.78,0,0,1-.19,1,1.82,1.82,0,0,1-.57.57,32.08,32.08,0,0,1-7.9,2.35,55.43,55.43,0,0,1-11.21,1q-9.06,0-15.17-2.81a26.84,26.84,0,0,1-9.94-7.52,29.38,29.38,0,0,1-5.48-10.38,41,41,0,0,1-1.66-11.54,39.93,39.93,0,0,1,2-12.55,32.85,32.85,0,0,1,5.92-10.84,28.6,28.6,0,0,1,9.56-7.52c3.74-1.82,8.16-2.48,13.26-2.48a28.76,28.76,0,0,1,12.3,2.42,21.8,21.8,0,0,1,8.35,6.31,29,29,0,0,1,4.71,9,31.87,31.87,0,0,1,1.53,9.69c0,1.87-.06,3.57-.19,5.1s-.23,2.63-.32,3.31a1.16,1.16,0,0,1-1.15,1c-.51,0-1.38.07-2.61.19s-2.76.22-4.59.26-3.76-.27-5.8-.27M128.23,99.34h16.7q3.06,0,4.53-.06a4.47,4.47,0,0,0,1.84-.62V97.9a9.7,9.7,0,0,0-.51-2.93,10.41,10.41,0,0,0-10.32-7.27,11.1,11.1,0,0,0-10.52,6,18.68,18.68,0,0,0-1.72,5.65"/></svg>