<svg id="Layer_1" data-name="Layer 1" xmlns="http://www.w3.org/2000/svg" viewBox="0 0 200 200"><defs><style>.cls-1{fill:#001e36;}.cls-2{fill:#31a8ff;}</style></defs><title>Logos-Adobe-Photoshop-Lightroom</title><path class="cls-1" d="M38.65,7.38h122.7A33.64,33.64,0,0,1,195,41V159a33.64,33.64,0,0,1-33.65,33.64H38.65A33.64,33.64,0,0,1,5,159V41A33.64,33.64,0,0,1,38.65,7.38"/><path class="cls-2" d="M47.78,137.28V55.84c0-.6.26-.89.77-.89,1.36,0,2.6,0,4.47-.07l6-.13L66,54.63c2.42,0,4.82-.07,7.2-.07A48,48,0,0,1,89.47,57a28.19,28.19,0,0,1,10.64,6.51,24.9,24.9,0,0,1,5.8,9,29.91,29.91,0,0,1,1.79,10.26q0,10.2-4.72,16.83a26.68,26.68,0,0,1-12.75,9.62c-5.35,2-11.3,2.67-17.84,2.67-1.87,0-3.19,0-4-.06s-1.91-.06-3.44-.06v25.43a1,1,0,0,1-.86,1.14.71.71,0,0,1-.29,0H48.67c-.59,0-.89-.33-.89-1M65,70.24V96.81q1.65.12,3.06.12h4.2a30,30,0,0,0,9.12-1.45,13.75,13.75,0,0,0,6.5-4.21q2.48-2.92,2.48-8.16a12.85,12.85,0,0,0-1.85-7A11.86,11.86,0,0,0,83,71.58,23.67,23.67,0,0,0,73.66,70c-2,0-3.84,0-5.41.06s-2.66.11-3.25.19"/><path class="cls-2" d="M157,92a29.32,29.32,0,0,0-7.59-2.68,39.94,39.94,0,0,0-8.86-1,16.43,16.43,0,0,0-4.78.57,4.3,4.3,0,0,0-2.48,1.59,4,4,0,0,0-.64,2.17,3.38,3.38,0,0,0,.77,2,8.52,8.52,0,0,0,2.67,2.1,52.93,52.93,0,0,0,5.61,2.62,55.27,55.27,0,0,1,12.17,5.8,18.45,18.45,0,0,1,6.25,6.56,17.49,17.49,0,0,1,1.85,8.16,18.34,18.34,0,0,1-3.06,10.51,20.1,20.1,0,0,1-8.86,7.08A35.66,35.66,0,0,1,135.69,140a52.69,52.69,0,0,1-10.77-1,34.29,34.29,0,0,1-8.09-2.55,1.64,1.64,0,0,1-.89-1.53V121.16a.75.75,0,0,1,.31-.7.62.62,0,0,1,.7.07,34.12,34.12,0,0,0,9.82,3.88,40,40,0,0,0,9.3,1.21c3,0,5.16-.38,6.57-1.14a3.61,3.61,0,0,0,2.1-3.32,4.22,4.22,0,0,0-1.91-3.18c-1.27-1-3.87-2.26-7.78-3.7a46.68,46.68,0,0,1-11.28-5.74,19.44,19.44,0,0,1-6-6.69,17.57,17.57,0,0,1-1.84-8.09,18.23,18.23,0,0,1,2.67-9.56,19.38,19.38,0,0,1,8.29-7.26q5.59-2.81,14-2.81a62,62,0,0,1,9.81.7,25.7,25.7,0,0,1,6.83,1.85,1.17,1.17,0,0,1,.77.7,3.83,3.83,0,0,1,.13,1V91.21a.87.87,0,0,1-.39.77A1.23,1.23,0,0,1,157,92"/></svg>