<svg id="Layer_1" data-name="Layer 1" xmlns="http://www.w3.org/2000/svg" viewBox="0 0 200 200"><defs><style>.cls-1{fill:#49021f;}.cls-2{fill:#f36;}</style></defs><title>Logos-Adobe-Photoshop-Lightroom</title><path class="cls-1" d="M38.65,7.38h122.7A33.64,33.64,0,0,1,195,41V159a33.64,33.64,0,0,1-33.65,33.64H38.65A33.64,33.64,0,0,1,5,159V41A33.64,33.64,0,0,1,38.65,7.38"/><path class="cls-2" d="M74,55.84V137c0,.85-.38,1.27-1.15,1.27H57.43c-.68,0-1-.42-1-1.27V55.84c0-.68.38-1,1.15-1H73a.9.9,0,0,1,1,.76,1.13,1.13,0,0,1,0,.26"/><path class="cls-2" d="M119.63,139.58a39.41,39.41,0,0,1-17-3.57A27,27,0,0,1,90.7,125.24q-4.33-7.2-4.34-18A33.29,33.29,0,0,1,90.7,90.51a31.69,31.69,0,0,1,12.62-12.24q8.28-4.59,20-4.59c.42,0,1,0,1.65.07s1.49.1,2.43.19V48.83c0-.6.25-.89.76-.89h16.06a.66.66,0,0,1,.76.57.61.61,0,0,1,0,.19V124c0,1.44.07,3,.2,4.71s.23,3.23.31,4.59a1.32,1.32,0,0,1-.76,1.28,62.84,62.84,0,0,1-12.87,3.82,68.84,68.84,0,0,1-12.24,1.15m7.78-15.81V89a12.64,12.64,0,0,0-2.11-.39,25.33,25.33,0,0,0-2.61-.12,19.7,19.7,0,0,0-8.92,2,17.36,17.36,0,0,0-6.69,5.86q-2.62,3.82-2.62,10.07a22.48,22.48,0,0,0,1.34,8.16,15.54,15.54,0,0,0,3.57,5.6,13.48,13.48,0,0,0,5.35,3.19,20.93,20.93,0,0,0,6.57,1c1.19,0,2.29,0,3.31-.13a13.49,13.49,0,0,0,2.81-.51"/></svg>