<svg id="Layer_1" data-name="Layer 1" xmlns="http://www.w3.org/2000/svg" viewBox="0 0 200 200"><defs><style>.cls-1{fill:#001e36;}.cls-2{fill:#31a8ff;}</style></defs><title>Logos-Adobe-Photoshop-Lightroom</title><path class="cls-1" d="M38.65,7.38h122.7A33.64,33.64,0,0,1,195,41V159a33.64,33.64,0,0,1-33.65,33.64H38.65A33.64,33.64,0,0,1,5,159V41A33.64,33.64,0,0,1,38.65,7.38"/><path class="cls-2" d="M104.78,138.3H54.56c-.85,0-1.27-.46-1.27-1.4V56a1,1,0,0,1,.86-1.14.71.71,0,0,1,.29,0H70a.79.79,0,0,1,.89.67.81.81,0,0,1,0,.22v66.53h36.58c.76,0,1.06.39.89,1.15l-2.29,13.77a1.2,1.2,0,0,1-.51,1,1.72,1.72,0,0,1-.77.19"/><path class="cls-2" d="M117.4,75h13.89A1.72,1.72,0,0,1,133,76.23a6.28,6.28,0,0,1,.64,1.79A22.83,22.83,0,0,1,134,80.5c.08.89.12,1.85.13,2.87a29.57,29.57,0,0,1,8.47-6.82,23.89,23.89,0,0,1,11.79-2.87,1,1,0,0,1,1.15.86,1.41,1.41,0,0,1,0,.29V90.25c0,.6-.43.89-1.28.89a32.2,32.2,0,0,0-15,2.68A13.5,13.5,0,0,0,135,96.75v40.41q0,1.14-1,1.14H118.55a1.13,1.13,0,0,1-1.28-1,1.71,1.71,0,0,1,0-.32V93.18c0-1.87,0-3.84-.06-5.92s-.11-4.15-.19-6.18a41.53,41.53,0,0,0-.51-5.23A.73.73,0,0,1,117,75,.77.77,0,0,1,117.4,75Z"/></svg>