<svg id="Layer_1" data-name="Layer 1" xmlns="http://www.w3.org/2000/svg" viewBox="0 0 200 200"><defs><style>.cls-1{fill:#300;}.cls-2{fill:#ff9a00;}</style></defs><title>Logos-Adobe-Photoshop-Lightroom</title><path class="cls-1" d="M38.65,7.38h122.7A33.64,33.64,0,0,1,195,41V159a33.64,33.64,0,0,1-33.65,33.64H38.65A33.64,33.64,0,0,1,5,159V41A33.64,33.64,0,0,1,38.65,7.38"/><path class="cls-2" d="M97.07,118.55H67.63l-6,18.61a1.49,1.49,0,0,1-1.53,1.14H45.2c-.85,0-1.15-.46-.9-1.4L69.79,63.48c.26-.76.51-1.63.77-2.61a27.94,27.94,0,0,0,.51-5.16.79.79,0,0,1,.67-.89H92.23c.59,0,.93.21,1,.64L122.18,137c.26.85,0,1.27-.76,1.27H104.85a1.17,1.17,0,0,1-1.28-.89ZM72.22,102.49H92.35c-.5-1.7-1.1-3.61-1.78-5.74s-1.4-4.39-2.17-6.82-1.53-4.84-2.29-7.26-1.47-4.76-2.1-7-1.22-4.31-1.72-6.18h-.13a102.47,102.47,0,0,1-2.68,10.19Q77.7,85.42,75.85,91.4T72.22,102.49Z"/><path class="cls-2" d="M139.39,68.33a9.27,9.27,0,0,1-7-2.81,10,10,0,0,1-2.68-7.26,9.31,9.31,0,0,1,2.87-7.07,9.78,9.78,0,0,1,7.07-2.74,9.46,9.46,0,0,1,7.2,2.74,9.77,9.77,0,0,1,2.61,7.07,9.93,9.93,0,0,1-2.74,7.26,9.75,9.75,0,0,1-7.32,2.81m-8.8,68.7V76.1q0-1.14,1-1.14h15.68q1,0,1,1.14V137c0,.85-.34,1.27-1,1.27H131.74c-.77,0-1.15-.42-1.15-1.27"/></svg>